<svg id="Layer_1" data-name="Layer 1" xmlns="http://www.w3.org/2000/svg" viewBox="0 0 600 600"><defs><style>.cls-1{fill:#ec50b7;}.cls-2{fill:#fff;}</style></defs><title>Lab-Plugin-Pym100</title><rect class="cls-1" width="600" height="600"/><path d="M213.25,348l-51.4-25.66,51.4-25.66a18.89,18.89,0,1,0-16.87-33.8L111.8,305.08a18.86,18.86,0,0,0-10.32,15.85c0,.46,0,.92,0,1.38s0,.92,0,1.38a18.86,18.86,0,0,0,10.32,15.85l84.58,42.23A18.89,18.89,0,0,0,213.25,348Z"/><path d="M204.78,387.92a22.94,22.94,0,0,1-10.26-2.43l-84.59-42.24a23.1,23.1,0,0,1-12.61-19.34c0-.36,0-.84-.06-1.33,0-1.07,0-1.55.07-2a23,23,0,0,1,12.61-19.21l84.59-42.23a23.05,23.05,0,1,1,20.6,41.25l-43.93,21.93,43.92,21.94a23.1,23.1,0,0,1,10.34,30.92A23.08,23.08,0,0,1,204.78,387.92Zm0-122.89a14.57,14.57,0,0,0-6.52,1.55l-84.59,42.23a14.76,14.76,0,0,0-8,12.37l0,1,0,1.16a14.81,14.81,0,0,0,8,12.5L198.24,378a14.72,14.72,0,0,0,13.15-26.34h0l-58.85-29.39,58.85-29.39a14.75,14.75,0,0,0,6.6-19.75A14.84,14.84,0,0,0,204.76,265Z"/><path class="cls-2" d="M217.75,336.36l-51.4-25.66L217.75,285a18.89,18.89,0,1,0-16.87-33.8l-84.58,42.23A18.86,18.86,0,0,0,106,309.32c0,.46,0,.92,0,1.38s0,.92,0,1.38a18.86,18.86,0,0,0,10.32,15.85l84.58,42.23a18.89,18.89,0,0,0,16.87-33.8Z"/><path d="M209.28,376.32A22.88,22.88,0,0,1,199,373.89l-84.58-42.23a23.15,23.15,0,0,1-12.62-19.33c0-.37,0-.85,0-1.33,0-1.07,0-1.55.06-2a23.06,23.06,0,0,1,12.62-19.21L199,247.51a23.06,23.06,0,1,1,20.61,41.25L175.68,310.7l43.94,21.93a23.06,23.06,0,0,1-10.34,43.68Zm0-122.9a14.6,14.6,0,0,0-6.54,1.55L118.16,297.2a14.77,14.77,0,0,0-8,12.38l0,1,0,1.18a14.84,14.84,0,0,0,8,12.49l84.58,42.23a14.78,14.78,0,0,0,19.75-6.59,14.75,14.75,0,0,0-6.6-19.75L157,310.7l58.86-29.39a14.78,14.78,0,0,0,6.6-19.74A14.76,14.76,0,0,0,209.28,253.42Z"/><path d="M375.61,348,427,322.31l-51.4-25.66a18.89,18.89,0,1,1,16.87-33.8l84.58,42.23a18.86,18.86,0,0,1,10.32,15.85c0,.46,0,.92,0,1.38s0,.92,0,1.38a18.86,18.86,0,0,1-10.32,15.85l-84.58,42.23A18.89,18.89,0,0,1,375.61,348Z"/><path d="M384.08,387.92a23.06,23.06,0,0,1-10.34-43.68l43.94-21.94-43.94-21.93a23.06,23.06,0,0,1,20.61-41.25l84.58,42.23a23.12,23.12,0,0,1,12.62,19.34c0,.37,0,.85,0,1.33,0,1.07,0,1.55-.06,2a23,23,0,0,1-12.62,19.21L394.35,385.5A22.94,22.94,0,0,1,384.08,387.92Zm0-122.89a14.73,14.73,0,0,0-6.62,27.89l58.86,29.39L377.47,351.7a14.77,14.77,0,0,0-6.59,19.74,14.75,14.75,0,0,0,19.74,6.6l84.58-42.24a14.75,14.75,0,0,0,8-12.37l0-1,0-1.18a14.82,14.82,0,0,0-8-12.49l-84.58-42.23A14.58,14.58,0,0,0,384.09,265Z"/><path class="cls-2" d="M371.11,336.36l51.4-25.66L371.11,285A18.89,18.89,0,1,1,388,251.24l84.58,42.23a18.86,18.86,0,0,1,10.32,15.85c0,.46,0,.92,0,1.38s0,.92,0,1.38a18.86,18.86,0,0,1-10.32,15.85L388,370.16a18.89,18.89,0,0,1-16.87-33.8Z"/><path d="M379.61,376.32a23.41,23.41,0,0,1-7.36-1.2,23,23,0,0,1-3-42.48l43.94-21.93-43.94-21.94a23.05,23.05,0,1,1,20.6-41.25l84.59,42.24A23.1,23.1,0,0,1,487,309.08c0,.46.06,1,.06,1.62s0,1.16-.07,1.74a23,23,0,0,1-12.61,19.21l-84.59,42.23A22.9,22.9,0,0,1,379.61,376.32ZM373,340.09a14.75,14.75,0,0,0-6.6,19.75,14.77,14.77,0,0,0,19.74,6.59L470.7,324.2a14.76,14.76,0,0,0,8-12.37c0-.46,0-.8,0-1.13s0-.68,0-1a14.81,14.81,0,0,0-8-12.5L386.12,255A14.72,14.72,0,1,0,373,281.31l58.86,29.39Z"/><path d="M368.07,188.71a19,19,0,0,0-2.4-5.48,20.62,20.62,0,0,0-10.06-8.41l-4.81-1.88a20.75,20.75,0,0,0-13.09-.65,21,21,0,0,0-5.49,2.4,20.69,20.69,0,0,0-8.42,10.06L235.63,410.1a20.66,20.66,0,0,0-.65,13.1,19,19,0,0,0,2.39,5.48,20.62,20.62,0,0,0,10.06,8.41l4.8,1.88h0a20.56,20.56,0,0,0,13.12.66,21,21,0,0,0,5.45-2.39,20.74,20.74,0,0,0,8.42-10.08l88.19-225.35A20.65,20.65,0,0,0,368.07,188.71Z"/><path class="cls-2" d="M342.74,182.58l-4.8-1.88a12.51,12.51,0,0,0-16.19,7.09L233.55,413.14a12.53,12.53,0,0,0,7.08,16.19l4.8,1.88a12.5,12.5,0,0,0,16.2-7.09l88.18-225.35a12.54,12.54,0,0,0-7.08-16.19Z"/><path d="M358.24,188.72a19.31,19.31,0,0,0-2.4-5.49,20.6,20.6,0,0,0-10.06-8.41l-4.8-1.88a20.73,20.73,0,0,0-13.09-.65,21,21,0,0,0-5.49,2.4A20.69,20.69,0,0,0,314,184.75L225.79,410.11a20.63,20.63,0,0,0-.65,13.09,19,19,0,0,0,2.4,5.48,20.62,20.62,0,0,0,10.06,8.41l4.8,1.88h0a20.56,20.56,0,0,0,13.12.66,21,21,0,0,0,5.45-2.38,20.74,20.74,0,0,0,8.43-10.08l88.18-225.35A20.61,20.61,0,0,0,358.24,188.72ZM245.44,431.21l-4.8-1.88a12.53,12.53,0,0,1-7.08-16.19l88.19-225.35a12.51,12.51,0,0,1,16.19-7.09l4.8,1.88a12.54,12.54,0,0,1,7.08,16.19L261.64,424.12A12.5,12.5,0,0,1,245.44,431.21Z"/></svg>